<svg width="149" height="648" viewBox="0 0 149 648" fill="none" xmlns="http://www.w3.org/2000/svg">
<path d="M83.5553 640.199C83.1973 639.158 82.4524 638.844 81.3417 638.091C80.2312 637.332 79.5573 637.059 78.0092 636.409C76.4611 635.759 75.2538 635.704 73.5883 634.84C71.9228 633.977 70.9868 633.302 69.6884 632.091C68.3832 630.886 67.8158 630.008 67.0755 628.81C66.3353 627.612 66.0364 627.137 65.974 626.1C65.9117 625.063 65.7782 624.744 66.7573 623.619C67.7428 622.5 68.3925 621.587 70.8755 620.494C73.365 619.402 75.2664 618.781 79.1918 618.165C83.1172 617.549 85.7303 617.437 90.5025 617.414C95.2745 617.397 98.2895 617.633 103.052 618.075C107.815 618.51 110.564 619.012 114.322 619.608C118.081 620.204 119.831 621.28 121.843 621.049C123.856 620.819 124.677 619.511 124.385 618.453C124.094 617.395 123.156 616.766 120.385 615.746C117.621 614.726 115.082 614.598 110.545 613.353C106.008 612.107 102.757 611.273 97.699 609.511C92.6405 607.756 89.5912 606.622 85.2529 604.571C80.9211 602.52 78.706 601.212 76.0204 599.258C73.3281 597.311 72.6701 596.017 71.818 594.821C70.9659 593.626 70.9428 593.913 71.7606 593.267C72.5718 592.621 73.303 592.195 75.8744 591.584C78.4523 590.973 80.6227 590.551 84.6304 590.213C88.6384 589.868 91.4853 589.837 95.9132 589.886C100.348 589.936 103.039 590.214 106.783 590.456C110.527 590.705 112.436 591.583 114.634 591.11C116.832 590.643 117.775 589.438 117.769 588.095C117.764 586.746 117.016 585.757 114.612 584.39C112.215 583.029 109.858 582.77 105.77 581.265C101.676 579.766 98.7169 578.857 94.1456 576.89C89.5743 574.923 86.7016 573.624 82.9136 571.435C79.1319 569.253 77.2609 567.688 75.2184 565.953C73.1759 564.218 72.8361 563.597 72.701 562.761C72.5659 561.924 72.7242 562.284 74.5497 561.764C76.3686 561.245 78.0787 560.643 81.7956 560.164C85.5127 559.678 88.3152 559.599 93.1283 559.348C97.9348 559.097 101.014 559.185 105.841 558.908C110.662 558.631 113.354 558.692 117.257 557.977C121.159 557.262 123.085 557.061 125.354 555.319C127.624 553.578 128.548 551.947 128.596 549.27C128.65 546.593 127.66 545 125.611 541.948C123.569 538.89 121.823 537.303 118.357 533.993C114.891 530.682 112.478 528.836 108.28 525.395C104.076 521.954 101.447 520.068 97.3486 516.788C93.2569 513.508 91.0222 511.819 87.8082 509.002C84.6005 506.191 83.2448 504.736 81.2911 502.716C79.3374 500.696 79.0591 499.632 78.0265 498.902C77.0004 498.172 76.5359 498.489 76.1479 499.059C75.7598 499.635 75.5026 500.601 76.0862 501.768C76.6632 502.934 77.3206 503.494 79.059 504.904C80.7977 506.307 82.2393 506.993 84.7656 508.804C87.2918 510.614 88.7206 511.856 91.6768 513.964C94.633 516.071 96.297 517.354 99.5466 519.34C102.796 521.327 104.631 522.419 107.918 523.89C111.206 525.367 112.949 526.069 115.983 526.699C119.017 527.329 120.692 527.728 123.089 527.039C125.479 526.343 126.871 525.259 127.953 523.24C129.043 521.222 129.335 519.424 128.522 516.946C127.708 514.469 126.41 513.244 123.897 510.864C121.378 508.478 119.606 507.276 115.944 505.033C112.283 502.796 109.9 501.593 105.577 499.667C101.254 497.735 98.606 496.778 94.3435 495.378C90.0807 493.985 87.5755 493.269 84.2573 492.681C80.9389 492.1 79.2685 491.754 77.7585 492.461C76.2553 493.162 75.9297 494.958 76.7342 496.198C77.5389 497.431 78.9464 498.154 81.7757 498.627C84.5984 499.098 86.9516 498.899 90.8679 498.545C94.7774 498.196 97.3342 497.814 101.343 496.873C105.352 495.939 107.598 495.428 110.906 493.854C114.207 492.286 115.902 491.37 117.871 489.015C119.833 486.66 120.614 484.985 120.715 482.081C120.817 479.183 120.14 477.47 118.384 474.5C116.635 471.531 115.083 470.03 111.947 467.255C108.804 464.473 106.545 463.091 102.682 460.605C98.8124 458.118 96.2731 456.87 92.6114 454.83C88.9496 452.79 86.7876 451.463 84.3664 450.41C81.9518 449.356 80.9119 449.398 80.5187 449.555C80.1255 449.711 80.5223 450.957 82.3935 451.199C84.2713 451.441 86.2144 450.939 89.9009 450.767C93.5874 450.594 96.4283 450.543 100.839 450.323C105.244 450.104 108.034 449.998 111.943 449.663C115.852 449.328 117.972 449.612 120.378 448.655C122.784 447.697 123.751 446.539 123.967 444.863C124.177 443.194 123.597 441.72 121.445 440.302C119.293 438.878 117.112 438.835 113.207 437.762C109.294 436.688 106.441 436.156 101.916 434.937C97.3907 433.712 94.6206 433.052 90.5878 431.66C86.5549 430.275 84.4878 429.43 81.7453 427.979C79.0028 426.527 78.0834 425.755 76.8887 424.397C75.6874 423.038 75.8512 422.677 75.7516 421.2C75.6583 419.73 76.0173 419.048 76.4098 417.032C76.8022 415.015 77.2284 413.727 77.7141 411.111C78.2066 408.489 78.5717 406.877 78.8522 403.927C79.1393 400.977 79.2887 399.331 79.1432 396.346C78.9977 393.361 78.8115 391.731 78.1249 388.995C77.4447 386.267 77.0993 384.676 75.7364 382.677C74.3735 380.678 73.2133 379.648 71.3035 379.005C69.3937 378.362 67.8457 378.465 66.1943 379.456C64.5495 380.446 63.26 381.803 63.0665 383.957C62.8666 386.105 63.5189 387.752 65.2013 390.201C66.8902 392.651 68.3365 393.958 71.4916 396.204C74.6467 398.449 76.7197 399.687 80.9834 401.427C85.2409 403.161 87.9507 404.042 92.7911 404.892C97.6379 405.742 100.527 406.007 105.192 405.665C109.857 405.324 112.476 404.859 116.123 403.192C119.769 401.524 121.688 400.229 123.432 397.33C125.176 394.43 125.585 392.329 124.831 388.694C124.084 385.066 122.914 382.995 119.669 379.168C116.425 375.342 114.024 373.332 108.602 369.567C103.18 365.802 99.6549 363.792 92.5591 360.342C85.4696 356.899 81.088 355.147 73.1416 352.342C65.1952 349.536 60.5406 348.261 52.8205 346.314C45.1069 344.368 40.9522 343.647 34.5609 342.605C28.1763 341.563 25.2222 341.277 20.8776 341.099C16.5394 340.928 14.7166 340.615 12.857 341.736C10.9974 342.856 10.4824 344.993 11.5858 346.708C12.6955 348.43 14.4349 349.061 18.38 350.325C22.325 351.596 25.1796 352.095 31.3178 353.043C37.456 353.991 41.5217 354.44 49.0643 355.071C56.6132 355.707 61.2495 356 69.0435 356.207C76.8375 356.414 81.1953 356.402 88.0406 356.111C94.8925 355.819 98.2724 355.577 103.283 354.757C108.293 353.936 110.353 353.668 113.099 352.008C115.838 350.355 116.935 348.874 116.986 346.485C117.043 344.097 115.724 342.518 113.384 340.079C111.038 337.646 108.868 336.548 105.259 334.294C101.658 332.04 98.9922 330.827 95.3492 328.813C91.706 326.806 89.4501 325.536 87.0434 324.253C84.6368 322.97 83.7339 322.664 83.322 322.414C82.9036 322.163 83.2566 323.158 84.9704 323.015C86.6776 322.871 88.4436 322.363 91.8644 321.703C95.2851 321.05 97.9765 320.764 102.075 319.722C106.172 318.686 108.703 318.126 112.347 316.524C115.991 314.916 117.894 314.059 120.303 311.7C122.706 309.341 123.713 307.785 124.385 304.737C125.063 301.696 124.526 299.561 123.681 296.473C122.836 293.385 121.763 291.553 120.166 289.297C118.562 287.041 117.067 285.62 115.682 285.185C114.304 284.75 113.204 285.779 113.255 287.124C113.307 288.475 114.766 289.79 115.946 291.94C117.126 294.09 118.294 295.467 119.163 297.874C120.025 300.275 120.591 301.762 120.271 303.965C119.957 306.174 119.471 307.106 117.581 308.907C115.692 310.701 114.122 311.622 110.828 312.954C107.528 314.293 105.061 314.75 101.108 315.582C97.149 316.419 94.5887 316.526 91.0388 317.116C87.4824 317.706 85.4197 317.3 83.3326 318.537C81.2457 319.767 80.3279 321.392 80.6037 323.282C80.8795 325.171 82.1402 326.145 84.6988 327.97C87.2574 329.795 89.719 330.444 93.3969 332.4C97.0745 334.362 99.6588 335.637 103.088 337.761C106.516 339.885 108.5 341.244 110.534 343.018C112.569 344.792 113.062 345.366 113.261 346.63C113.466 347.895 113.62 348.195 111.536 349.341C109.452 350.479 107.56 351.396 102.842 352.338C98.1227 353.28 94.6917 353.664 87.9421 354.038C81.1926 354.411 76.8341 354.442 69.1001 354.211C61.3661 353.981 56.7307 353.662 49.2723 352.877C41.8142 352.086 37.7681 351.454 31.809 350.27C25.8499 349.086 23.0706 348.124 19.4839 346.945C15.9036 345.772 14.9709 344.816 13.8818 344.385C12.7927 343.954 12.641 344.911 14.0319 344.79C15.4229 344.668 16.7872 343.805 20.8299 343.783C24.8794 343.754 27.9474 343.789 34.2529 344.651C40.565 345.513 44.7206 346.208 52.3774 348.087C60.0341 349.965 64.6756 351.241 72.5299 354.05C80.3907 356.859 84.7319 358.641 91.6685 362.132C98.6118 365.623 102.068 367.728 107.22 371.497C112.372 375.272 114.564 377.425 117.436 381.003C120.309 384.574 120.972 386.464 121.574 389.367C122.182 392.269 121.829 393.357 120.459 395.51C119.096 397.663 117.829 398.745 114.724 400.143C111.626 401.541 109.224 402.184 104.954 402.5C100.684 402.823 97.8854 402.607 93.3744 401.736C88.87 400.865 86.2469 399.948 82.4257 398.144C78.6043 396.347 76.721 394.946 74.268 392.731C71.815 390.517 71.2015 388.891 70.161 387.067C69.1272 385.243 69.4638 384.449 69.0919 383.617C68.7268 382.779 68.4022 382.853 68.3223 382.883C68.2361 382.906 68.2358 383.103 68.6665 383.753C69.1041 384.397 69.643 384.776 70.4963 386.122C71.3432 387.468 72.2116 388.383 72.9203 390.484C73.6293 392.578 73.8871 394.041 74.0339 396.613C74.1807 399.186 74.0174 400.66 73.6546 403.333C73.2982 406.012 72.8081 407.436 72.2389 409.996C71.6632 412.557 71.1232 413.717 70.8019 416.142C70.4872 418.567 70.061 419.856 70.6393 422.116C71.2173 424.382 71.8123 425.601 73.6932 427.449C75.5741 429.296 76.8956 429.846 80.0439 431.344C83.192 432.849 85.2781 433.525 89.4405 434.967C93.603 436.409 96.3636 437.154 100.863 438.549C105.356 439.943 108.227 440.718 111.93 441.948C115.633 443.177 117.4 444.163 119.379 444.684C121.359 445.198 121.866 444.62 121.829 444.533C121.8 444.441 121.262 444.022 119.205 444.232C117.153 444.449 115.26 445.214 111.553 445.596C107.846 445.984 105.038 446.036 100.676 446.152C96.3147 446.269 93.5465 446.12 89.7589 446.177C85.9713 446.235 83.9415 445.64 81.7381 446.441C79.528 447.248 78.5983 448.649 78.7149 450.206C78.8251 451.755 79.8595 452.623 82.2884 454.208C84.7176 455.786 87.1664 456.238 90.8604 458.109C94.5543 459.98 97.0558 461.181 100.758 463.57C104.467 465.965 106.577 467.454 109.384 470.06C112.191 472.666 113.392 474.221 114.795 476.602C116.197 478.982 116.417 480.025 116.389 481.962C116.36 483.906 116.091 484.65 114.653 486.309C113.215 487.962 112.024 488.929 109.192 490.238C106.36 491.547 104.215 492.167 100.498 492.842C96.7742 493.524 94.2424 493.567 90.5927 493.629C86.9427 493.699 84.8124 493.159 82.2358 493.167C79.6655 493.182 78.5901 493.112 77.7155 493.691C76.8407 494.276 76.7075 495.457 77.8687 496.08C79.0365 496.704 80.4577 496.282 83.5416 496.802C86.6321 497.323 89.1959 497.491 93.3145 498.682C97.4397 499.874 100.048 500.85 104.141 502.774C108.24 504.698 110.534 506.016 113.806 508.298C117.078 510.574 118.598 512.035 120.495 514.164C122.399 516.294 122.651 517.554 123.313 518.926C123.975 520.305 124.107 520.46 123.811 521.045C123.514 521.631 123.225 521.628 121.824 521.854C120.416 522.08 119.244 522.523 116.785 522.176C114.332 521.834 112.574 521.374 109.555 520.122C106.53 518.87 104.725 517.851 101.684 515.924C98.6487 513.997 97.0431 512.736 94.3609 510.501C91.6852 508.266 90.4302 506.938 88.2923 504.735C86.1542 502.539 85.4559 501.08 83.6707 499.505C81.8922 497.923 81.0249 497.166 79.3927 496.854C77.754 496.541 76.4485 497.039 75.4971 497.936C74.5456 498.832 74.0249 499.816 74.6288 501.344C75.2327 502.871 76.2866 503.556 78.5231 505.573C80.7531 507.583 82.3896 508.714 85.7985 511.407C89.2009 514.1 91.4429 515.77 95.5551 519.024C99.6674 522.279 102.275 524.203 106.353 527.686C110.425 531.168 112.735 533.142 115.932 536.43C119.13 539.711 120.624 541.532 122.328 544.113C124.039 546.7 124.331 547.745 124.478 549.362C124.626 550.971 124.64 551.136 123.066 552.168C121.485 553.206 120.076 553.838 116.595 554.529C113.107 555.219 110.375 555.359 105.654 555.614C100.933 555.868 97.8566 555.689 92.9959 555.8C88.1288 555.906 85.3741 555.744 81.3315 556.14C77.2952 556.542 75.2151 556.45 72.7888 557.8C70.3625 559.149 69.2309 560.688 69.2069 562.881C69.1764 565.074 70.2518 566.461 72.6558 568.758C75.0599 571.056 77.2113 572.12 81.2202 574.382C85.2355 576.651 88.1018 577.943 92.7063 580.088C97.3111 582.227 100.222 583.37 104.237 585.095C108.245 586.82 110.306 588.005 112.773 588.707C115.239 589.402 116.199 589.023 116.563 588.577C116.92 588.138 116.502 586.931 114.585 586.498C112.661 586.07 110.68 586.512 106.957 586.441C103.226 586.369 100.478 586.201 95.9585 586.142C91.4389 586.082 88.6057 585.911 84.3524 586.129C80.1059 586.341 77.8791 586.309 74.7125 587.214C71.5462 588.112 69.8296 588.714 68.5335 590.633C67.2307 592.559 67.1158 594.533 68.2122 596.824C69.3152 599.116 70.8883 599.989 74.0351 602.097C77.1819 604.204 79.4388 605.259 83.9466 607.348C88.4613 609.431 91.5034 610.585 96.5946 612.531C101.686 614.471 104.889 615.545 109.417 617.053C113.938 618.56 116.31 619.54 119.203 620.06C122.103 620.58 123.242 620.332 123.89 619.66C124.538 618.982 124.257 617.427 122.436 616.676C120.622 615.925 118.619 616.274 114.793 615.911C110.968 615.548 108.173 615.228 103.322 614.869C98.4643 614.509 95.4448 614.214 90.5257 614.114C85.6066 614.014 82.9791 613.975 78.7194 614.376C74.453 614.784 72.4259 615.054 69.2075 616.127C65.9823 617.206 64.468 617.847 62.607 619.76C60.7525 621.673 60.2169 623.272 59.9095 625.678C59.6083 628.091 60.1085 629.576 61.102 631.804C62.0952 634.039 63.1458 635.006 64.8692 636.848C66.5991 638.69 67.6982 639.586 69.7381 641.019C71.7717 642.446 73.025 643.256 75.0431 643.995C77.0615 644.727 78.208 644.832 79.8294 644.699C81.4511 644.559 82.3964 644.212 83.1443 643.308C83.8921 642.411 83.913 641.246 83.5553 640.199Z" fill="#F7F8F7" stroke="#F7F8F7"/>
<path d="M88.2883 268.844C89.2107 268.214 89.9968 267.535 90.1776 265.556C90.3582 263.585 89.6601 262.12 89.1919 258.966C88.7237 255.813 88.3886 253.738 87.836 249.802C87.2899 245.867 86.9973 243.518 86.4416 239.294C85.8924 235.071 85.5663 232.741 85.0766 228.696C84.5871 224.644 84.3576 222.56 83.9997 219.07C83.6353 215.58 83.6205 213.746 83.274 211.245C82.9276 208.744 82.8059 207.901 82.2544 206.566C81.7096 205.23 81.2087 204.892 80.5368 204.561C79.8651 204.223 79.387 204.363 78.9015 204.903C78.4158 205.449 78.1911 205.861 78.109 207.272C78.0334 208.684 78.1103 209.493 78.5169 211.963C78.9238 214.426 79.5333 216.17 80.1429 219.604C80.7591 223.037 81.0414 225.117 81.5779 229.137C82.121 233.158 82.4275 235.487 82.8388 239.706C83.2503 243.918 83.4046 246.275 83.6415 250.219C83.872 254.157 83.9352 256.301 84.0105 259.414C84.086 262.521 83.7021 263.916 84.0184 265.774C84.3348 267.632 84.7328 268.091 85.5855 268.703C86.4447 269.316 87.3725 269.473 88.2883 268.844Z" fill="#F7F8F7" stroke="#F7F8F7"/>
<path d="M75.7854 168.793C74.7927 168.614 74.2496 168.733 73.3897 169.456C72.5298 170.179 71.9101 170.799 71.4926 172.402C71.0815 174.012 70.7189 175.362 71.3081 177.498C71.9039 179.634 72.6491 180.878 74.4649 183.083C76.2809 185.282 77.4501 186.429 80.4004 188.517C83.3573 190.604 85.2495 191.751 89.2296 193.521C93.2099 195.284 95.8254 196.233 100.302 197.346C104.778 198.458 107.456 198.932 111.605 199.077C115.747 199.215 117.963 199.187 121.032 198.057C124.095 196.926 125.842 195.808 126.945 193.404C128.041 191.006 127.797 188.96 126.531 186.054C125.266 183.148 123.784 181.734 120.617 178.873C117.458 176.012 115.172 174.465 110.712 171.748C106.252 169.032 103.26 167.585 98.3253 165.297C93.3843 163.002 90.3603 161.895 86.0126 160.302C81.665 158.703 79.2837 157.637 76.5874 157.307C73.8846 156.977 72.6799 157.786 72.5119 158.645C72.3503 159.511 73.2369 160.845 75.7601 161.614C78.2767 162.383 80.7419 162.364 85.1015 162.49C89.4612 162.61 92.6752 162.604 97.5646 162.238C102.46 161.878 105.348 161.626 109.554 160.672C113.761 159.712 115.906 159.27 118.598 157.464C121.29 155.659 122.595 154.244 123.02 151.653C123.446 149.061 122.68 147.299 120.727 144.506C118.78 141.707 116.966 140.399 113.289 137.677C109.604 134.962 106.901 133.518 102.332 130.916C97.7637 128.307 94.5099 126.818 90.4384 124.652C86.367 122.486 84.1569 121.033 81.9883 120.087C79.8128 119.146 79.1723 119.798 79.5819 119.924C79.9914 120.056 81.0621 120.447 84.0293 120.734C86.9902 121.014 89.8977 121.129 94.3993 121.326C98.9074 121.529 102.113 121.765 106.557 121.73C111.008 121.696 113.329 121.836 116.633 121.146C119.936 120.456 121.671 120.104 123.075 118.286C124.473 116.468 124.699 114.505 123.634 112.064C122.569 109.617 120.87 108.601 117.757 106.076C114.644 103.557 112.261 102.171 108.065 99.4501C103.868 96.7363 100.985 95.1685 96.7734 92.4869C92.5555 89.8116 89.9586 88.1425 86.9883 86.0609C84.0183 83.9728 82.9644 82.7244 81.9095 82.0654C80.8545 81.4129 80.5906 82.5694 81.7006 82.7785C82.804 82.9873 84.3172 82.9419 87.4461 83.1166C90.5749 83.2914 93.2354 83.5153 97.3448 83.6522C101.454 83.7957 104.117 83.9346 107.987 83.8012C111.862 83.6746 113.936 83.95 116.709 83.0055C119.483 82.0676 120.994 81.1314 121.855 79.0788C122.715 77.0327 122.441 75.268 120.997 72.7616C119.554 70.2552 117.817 69.1663 114.635 66.5599C111.447 63.9468 109.073 62.482 105.081 59.7295C101.089 56.9704 98.2445 55.2533 94.6702 52.7773C91.0958 50.3079 89.2078 48.6636 87.2161 47.3562C85.2242 46.0554 84.5767 46.3406 84.7044 46.2599C84.8386 46.1794 85.467 46.817 87.8808 46.9537C90.288 47.0901 92.7012 47.0565 96.767 46.9365C100.826 46.8163 103.754 46.912 108.177 46.3526C112.606 45.8 115.181 45.4838 118.901 44.1533C122.628 42.8295 124.508 42.0568 126.804 39.7268C129.094 37.3901 129.996 35.6599 130.363 32.4767C130.737 29.2937 130.215 27.3172 128.661 23.8049C127.108 20.2927 125.258 18.1258 122.609 14.9289C119.954 11.7319 118.061 10.0416 115.412 7.80743C112.762 5.5733 110.934 4.10791 109.369 3.75199C107.811 3.39631 106.906 4.64842 107.6 6.03491C108.288 7.41463 110.437 8.37376 112.814 10.6704C115.192 12.9606 117.036 14.5445 119.483 17.4985C121.937 20.4527 123.672 22.5239 125.075 25.4415C126.478 28.3591 126.692 29.7615 126.499 32.0863C126.306 34.4046 125.873 35.3326 124.111 37.0524C122.349 38.7657 120.966 39.5885 117.695 40.6662C114.424 41.7505 111.954 42.0834 107.754 42.4607C103.554 42.8446 100.745 42.5631 96.696 42.5723C92.6474 42.575 90.2978 41.9166 87.5047 42.4806C84.7049 43.0443 83.3047 43.8074 82.7166 45.4046C82.1221 46.9949 82.5737 48.3664 84.5448 50.4524C86.5225 52.5386 88.8915 53.3942 92.5785 55.8414C96.2652 58.2951 99.0925 59.9525 102.972 62.7143C106.852 65.476 109.14 67.1474 111.984 69.6568C114.834 72.1665 115.931 73.6849 117.203 75.2684C118.476 76.8454 118.692 76.8726 118.352 77.5615C118.012 78.2504 117.61 78.3084 115.512 78.7067C113.415 79.105 111.457 79.4755 107.865 79.5596C104.274 79.6438 101.609 79.3542 97.5423 79.127C93.4818 78.9066 90.9492 78.4056 87.5435 78.4438C84.138 78.4756 82.2435 78.1475 80.5206 79.3055C78.804 80.4702 78.0701 82.2915 78.9416 84.2474C79.8133 86.1968 81.6626 86.877 84.8782 89.085C88.0875 91.2863 90.7553 92.6173 95.0002 95.2739C99.2451 97.9305 102.072 99.5945 106.103 102.368C110.139 105.148 112.435 106.794 115.165 109.155C117.902 111.517 118.776 112.857 119.781 114.169C120.787 115.488 120.984 115.122 120.207 115.723C119.436 116.332 118.632 116.769 115.897 117.184C113.168 117.606 110.801 117.825 106.542 117.82C102.284 117.815 99.1099 117.423 94.61 117.174C90.1036 116.925 87.2995 116.297 84.0299 116.575C80.7538 116.854 79.0714 117.227 78.2423 118.574C77.4198 119.92 77.7733 121.465 79.8914 123.294C82.0093 125.13 84.6727 125.649 88.8322 127.739C92.9914 129.836 96.2297 131.207 100.688 133.766C105.147 136.319 107.753 137.916 111.119 140.522C114.485 143.135 115.935 144.699 117.518 146.804C119.101 148.909 119.223 149.555 119.032 151.048C118.836 152.548 118.601 153.05 116.547 154.289C114.499 155.52 112.616 156.371 108.774 157.226C104.933 158.081 102.038 158.34 97.3448 158.556C92.6448 158.772 89.484 158.57 85.2936 158.306C81.0964 158.048 78.8924 157.172 76.3595 157.247C73.8266 157.322 72.7741 157.914 72.6357 158.676C72.4909 159.437 73.1966 160.116 75.6613 161.054C78.1195 161.991 80.6633 161.982 84.9461 163.363C89.2288 164.75 92.2625 165.766 97.0748 167.984C101.887 170.196 104.804 171.732 109.008 174.446C113.211 177.167 115.332 178.898 118.085 181.568C120.831 184.231 121.75 185.769 122.751 187.782C123.752 189.795 123.694 190.33 123.083 191.638C122.472 192.946 121.971 193.57 119.696 194.329C117.422 195.095 115.408 195.542 111.705 195.458C108.001 195.381 105.339 195.013 101.17 193.938C97.0015 192.856 94.4465 191.869 90.8684 190.068C87.2837 188.266 85.5469 187 83.2729 184.93C80.9987 182.866 80.3558 181.514 79.498 179.729C78.6468 177.944 79.0486 177.165 78.9974 175.998C78.9393 174.837 79.1816 174.675 79.2278 173.917C79.2803 173.165 79.4128 172.947 79.2408 172.227C79.0688 171.508 79.0664 171.01 78.3742 170.318C77.6818 169.632 76.785 168.965 75.7854 168.793Z" fill="#F7F8F7" stroke="#F7F8F7"/>
</svg>
